{"title":"Amelie[2001]BRrip[French][Eng Subs][Ac3-5.1]-=[CaLvIn]=-","uid":7401249,"size":868632229,"categoryP":"video","categoryS":"movies","magnet":"?xt=urn:btih:bbf00e79ae558395a18e554bc24e29240ca9a51e&amp;dn=Amelie%5B2001%5DBRrip%5BFrench%5D%5BEng+Subs%5D%5BAc3-5.1%5D-%3D%5BCaLvIn%5D%3D-&amp;tr=udp%3A%2F%2Ftracker.openbittorrent.com%3A80&amp;tr=udp%3A%2F%2Fopen.demonii.com%3A1337&amp;tr=udp%3A%2F%2Ftracker.coppersurfer.tk%3A6969&amp;tr=udp%3A%2F%2Fexodus.desync.com%3A6969","seeders":6,"leechers":3,"uploader":"rhythmtheguru","files":15,"time":1341080346,"description":"General\nComplete name                    : Amelie[2001]BRrip[French][Eng Subs][Ac3-5.1]\n                                   -=[CaLvIn]=-\nImdb Link                        : http://www.imdb.com/title/tt0211915\nFormat                           : AVI\nFormat/Info                      : Audio Video Interleave\nFile size                        : 797 MiB\nDuration                         : 2h 1mn\nOverall bit rate                 : 916 Kbps\nWriting application              : VirtualDubMod 1.5.10.3 | www.virtualdub-fr.org || (build 2550/release)\nWriting library                  : VirtualDubMod build 2550/release\n\nVideo\nID                               : 0\nFormat                           : MPEG-4 Visual\nFormat profile                   : Advanced Simple@L5\nFormat settings, BVOP            : 2\nFormat settings, QPel            : No\nFormat settings, GMC             : No warppoints\nFormat settings, Matrix          : Default (H.263)\nCodec ID                         : XVID\nCodec ID/Hint                    : XviD\nDuration                         : 2h 1mn\nBit rate                         : 715 Kbps\nWidth                            : 720 pixels\nHeight                           : 304 pixels\nDisplay aspect ratio             : 16:9\nFrame rate                       : 23.976 fps\nColor space                      : YUV\nChroma subsampling               : 4:2:0\nBit depth                        : 8 bits\nScan type                        : Progressive\nCompression mode                 : Lossy\nBits/(Pixel*Frame)               : 0.136\nStream size                      : 622 MiB (78%)\nWriting library                  : XviD 1.2.1 (UTC 2008-12-04)\n\nAudio\nID                               : 1\nFormat                           : AC-3\nFormat/Info                      : Audio Coding 3\nMode extension                   : CM (complete main)\nCodec ID                         : 2000\nDuration                         : 2h 1mn\nBit rate mode                    : Constant\nBit rate                         : 192 Kbps\nChannel(s)                       : 6 channels\nChannel positions                : Front: L C R, Side: L R, LFE\nSampling rate                    : 48.0 KHz\nBit depth                        : 16 bits\nCompression mode                 : Lossy\nStream size                      : 167 MiB (21%)\nAlignment                        : Split accross interleaves\nInterleave, duration             : 42 ms (1.00 video frame)\nInterleave, preload duration     : 500 ms\n\n\nScreens\n\n &lt;a href=&quot;\nhttp://img411.imageshack.us/img411/5060/59608968.png&quot; rel=&quot;nofollow&quot; target=&quot;_NEW&quot;&gt;\nhttp://img411.imageshack.us/img411/5060/59608968.png&lt;/a&gt; &lt;a href=&quot;\nhttp://img221.imageshack.us/img221/9611/10735993.png&quot; rel=&quot;nofollow&quot; target=&quot;_NEW&quot;&gt;\nhttp://img221.imageshack.us/img221/9611/10735993.png&lt;/a&gt; &lt;a href=&quot;\nhttp://img23.imageshack.us/img23/2292/31181746.png&quot; rel=&quot;nofollow&quot; target=&quot;_NEW&quot;&gt;\nhttp://img23.imageshack.us/img23/2292/31181746.png&lt;/a&gt; &lt;a href=&quot;\nhttp://img24.imageshack.us/img24/8706/30434273.png&quot; rel=&quot;nofollow&quot; target=&quot;_NEW&quot;&gt;\nhttp://img24.imageshack.us/img24/8706/30434273.png&lt;/a&gt; &lt;a href=&quot;\nhttp://img411.imageshack.us/img411/3527/65079967.png&quot; rel=&quot;nofollow&quot; target=&quot;_NEW&quot;&gt;\nhttp://img411.imageshack.us/img411/3527/65079967.png&lt;/a&gt; &lt;a href=&quot;\nhttp://img845.imageshack.us/img845/8430/72821729.png&quot; rel=&quot;nofollow&quot; target=&quot;_NEW&quot;&gt;\nhttp://img845.imageshack.us/img845/8430/72821729.png&lt;/a&gt; &lt;a href=&quot;\nhttp://img825.imageshack.us/img825/7416/43782324.png&quot; rel=&quot;nofollow&quot; target=&quot;_NEW&quot;&gt;\nhttp://img825.imageshack.us/img825/7416/43782324.png&lt;/a&gt; &lt;a href=&quot;\nhttp://img713.imageshack.us/img713/761/11965872.png&quot; rel=&quot;nofollow&quot; target=&quot;_NEW&quot;&gt;\nhttp://img713.imageshack.us/img713/761/11965872.png&lt;/a&gt; &lt;a href=&quot;\nhttp://img849.imageshack.us/img849/2259/36153739.png&quot; rel=&quot;nofollow&quot; target=&quot;_NEW&quot;&gt;\nhttp://img849.imageshack.us/img849/2259/36153739.png&lt;/a&gt; &lt;a href=&quot;\nhttp://img801.imageshack.us/img801/3626/83848454.png&quot; rel=&quot;nofollow&quot; target=&quot;_NEW&quot;&gt;\nhttp://img801.imageshack.us/img801/3626/83848454.png&lt;/a&gt;","torrent":{"xt":"urn:btih:bbf00e79ae558395a18e554bc24e29240ca9a51e","amp;dn":"Amelie%5B2001%5DBRrip%5BFrench%5D%5BEng+Subs%5D%5BAc3-5.1%5D-%3D%5BCaLvIn%5D%3D-","amp;tr":["udp%3A%2F%2Ftracker.openbittorrent.com%3A80","udp%3A%2F%2Fopen.demonii.com%3A1337","udp%3A%2F%2Ftracker.coppersurfer.tk%3A6969","udp%3A%2F%2Fexodus.desync.com%3A6969"],"infoHash":"bbf00e79ae558395a18e554bc24e29240ca9a51e","infoHashBuffer":{"type":"Buffer","data":[187,240,14,121,174,85,131,149,161,142,85,75,194,78,41,36,12,169,165,30]},"announce":[],"urlList":[]}}